<svg xmlns="http://www.w3.org/2000/svg" >
    <symbol id="cloud_lg" viewBox="0 0 29 29">
        <path d="M21.605 13.05C21.605 12.615 21.75 12.18 21.75 11.6C21.75 8.41002 19.14 5.80002 15.95 5.80002C13.63 5.80002 11.745 7.10502 10.73 8.99002C10.44 8.84502 9.86001 8.70002 9.42501 8.70002C7.39501 8.70002 5.80001 10.295 5.80001 12.325C5.80001 12.615 5.80001 12.905 5.94501 13.05C3.33501 13.485 1.45001 15.515 1.45001 18.125C1.45001 20.88 3.77001 23.2 6.52501 23.2H21.025C23.78 23.2 26.1 20.88 26.1 18.125C26.1 15.515 24.215 13.34 21.605 13.05Z" fill="white"/>
    </symbol>
    <symbol id="arrow_down" viewBox="0 0 123.959 123.958">
        <g>
            <path d="M117.979,28.017h-112c-5.3,0-8,6.4-4.2,10.2l56,56c2.3,2.3,6.1,2.3,8.401,0l56-56
		C125.979,34.417,123.279,28.017,117.979,28.017z"/>
        </g>
    </symbol>
</svg>

